<svg width="73" height="14" viewBox="0 0 73 16" fill="none" xmlns="http://www.w3.org/2000/svg">
<path d="M70.0813 15.1928V9.52136C70.0813 8.86617 69.8698 8.32701 69.4466 7.90387C69.0371 7.48073 68.5048 7.26916 67.8496 7.26916C67.4128 7.26916 67.0238 7.3647 66.6826 7.5558C66.3413 7.7469 66.0752 8.01307 65.8841 8.35431C65.693 8.69555 65.5974 9.08457 65.5974 9.52136L64.717 9.02997C64.717 8.27923 64.8808 7.61722 65.2084 7.04394C65.536 6.457 65.9864 5.99973 66.5597 5.67214C67.1467 5.3309 67.8018 5.16028 68.5253 5.16028C69.2624 5.16028 69.9175 5.35137 70.4908 5.73357C71.0641 6.10211 71.5146 6.58667 71.8422 7.18726C72.1697 7.7742 72.3335 8.38843 72.3335 9.02997V15.1928H70.0813ZM63.3452 15.1928V5.36502H65.5974V15.1928H63.3452Z" fill="white"/>
<path d="M58.567 15.1928V5.365H60.8192V15.1928H58.567ZM59.6932 3.56324C59.311 3.56324 58.9902 3.43356 58.7308 3.17422C58.4852 2.91488 58.3623 2.59411 58.3623 2.21192C58.3623 1.82972 58.4852 1.50896 58.7308 1.24961C58.9902 0.990268 59.311 0.860596 59.6932 0.860596C60.089 0.860596 60.4098 0.990268 60.6555 1.24961C60.9011 1.50896 61.024 1.82972 61.024 2.21192C61.024 2.59411 60.9011 2.91488 60.6555 3.17422C60.4098 3.43356 60.089 3.56324 59.6932 3.56324Z" fill="white"/>
<path d="M52.1751 15.3976C51.1924 15.3976 50.3051 15.1792 49.5135 14.7424C48.7354 14.2919 48.1144 13.6777 47.6503 12.8997C47.1998 12.1216 46.9746 11.248 46.9746 10.2789C46.9746 9.30979 47.1998 8.44303 47.6503 7.67865C48.1007 6.90061 48.7081 6.28638 49.4725 5.83594C50.2505 5.3855 51.1105 5.16028 52.0523 5.16028C52.9668 5.16028 53.7722 5.37185 54.4683 5.79499C55.1781 6.21813 55.7309 6.79824 56.1267 7.53533C56.5362 8.27241 56.741 9.11187 56.741 10.0537C56.741 10.2175 56.7273 10.3881 56.7 10.5656C56.6864 10.7294 56.6591 10.9136 56.6181 11.1184H48.5511V9.27566H55.4511L54.6116 10.0127C54.5843 9.41216 54.4683 8.90712 54.2635 8.49763C54.0588 8.08814 53.7653 7.7742 53.3831 7.5558C53.0146 7.33741 52.5573 7.22821 52.0113 7.22821C51.4381 7.22821 50.9398 7.35105 50.5167 7.59675C50.0936 7.84244 49.766 8.19051 49.5339 8.64095C49.3019 9.07774 49.1859 9.60325 49.1859 10.2175C49.1859 10.8317 49.3087 11.3709 49.5544 11.835C49.8001 12.2991 50.1482 12.6608 50.5986 12.9201C51.049 13.1658 51.5677 13.2887 52.1547 13.2887C52.6597 13.2887 53.1238 13.2 53.5469 13.0225C53.9837 12.8451 54.3523 12.5857 54.6526 12.2445L56.0858 13.6982C55.608 14.2578 55.0279 14.6809 54.3454 14.9676C53.663 15.2542 52.9395 15.3976 52.1751 15.3976Z" fill="white"/>
<path d="M41.6461 15.1927V1.27002H43.8983V15.1927H41.6461ZM39.2915 7.41238V5.36493H46.2529V7.41238H39.2915Z" fill="white"/>
<path d="M32.3898 15.3976C31.5025 15.3976 30.6972 15.1723 29.9738 14.7219C29.264 14.2715 28.6975 13.664 28.2744 12.8997C27.8649 12.1216 27.6602 11.2549 27.6602 10.2994C27.6602 9.33026 27.8649 8.46351 28.2744 7.69912C28.6975 6.92109 29.264 6.30685 29.9738 5.85641C30.6972 5.39232 31.5025 5.16028 32.3898 5.16028C33.1405 5.16028 33.8025 5.32407 34.3758 5.65167C34.9627 5.96561 35.4268 6.4024 35.7681 6.96204C36.1093 7.52168 36.2799 8.15639 36.2799 8.86617V11.6917C36.2799 12.4014 36.1093 13.0362 35.7681 13.5958C35.4405 14.1554 34.9832 14.599 34.3963 14.9266C33.8093 15.2406 33.1405 15.3976 32.3898 15.3976ZM32.7583 13.2682C33.591 13.2682 34.2598 12.9884 34.7648 12.4287C35.2835 11.8691 35.5429 11.1525 35.5429 10.2789C35.5429 9.69198 35.4268 9.17329 35.1948 8.72285C34.9627 8.27241 34.6352 7.92434 34.212 7.67865C33.8025 7.4193 33.318 7.28963 32.7583 7.28963C32.2123 7.28963 31.7278 7.4193 31.3046 7.67865C30.8951 7.92434 30.5675 8.27241 30.3218 8.72285C30.0898 9.17329 29.9738 9.69198 29.9738 10.2789C29.9738 10.8659 30.0898 11.3845 30.3218 11.835C30.5675 12.2854 30.8951 12.6403 31.3046 12.8997C31.7278 13.1454 32.2123 13.2682 32.7583 13.2682ZM35.3995 15.1928V12.5516L35.7886 10.1561L35.3995 7.78102V5.36502H37.6517V15.1928H35.3995Z" fill="white"/>
<path d="M22.3106 15.1927V1.27002H24.5628V15.1927H22.3106ZM19.9561 7.41238V5.36493H26.9174V7.41238H19.9561Z" fill="white"/>
<path d="M15.2331 15.3976C14.6871 15.3976 14.1616 15.3293 13.6566 15.1928C13.1515 15.0427 12.6875 14.8379 12.2643 14.5786C11.8412 14.3056 11.4726 13.978 11.1587 13.5958L12.5919 12.1626C12.9332 12.5584 13.3222 12.8587 13.759 13.0635C14.2094 13.2546 14.7144 13.3501 15.2741 13.3501C15.7791 13.3501 16.1613 13.275 16.4207 13.1249C16.68 12.9747 16.8097 12.7563 16.8097 12.4697C16.8097 12.1694 16.6868 11.9374 16.4411 11.7736C16.1954 11.6098 15.8747 11.4733 15.4788 11.3641C15.0966 11.2412 14.6871 11.1184 14.2503 10.9955C13.8272 10.8727 13.4177 10.7089 13.0219 10.5041C12.6397 10.2857 12.3257 9.99227 12.08 9.62373C11.8344 9.25519 11.7115 8.77745 11.7115 8.19051C11.7115 7.56262 11.8548 7.02346 12.1415 6.57302C12.4418 6.12258 12.8581 5.77451 13.3904 5.52882C13.9364 5.28313 14.5848 5.16028 15.3355 5.16028C16.1272 5.16028 16.8233 5.3036 17.4239 5.59024C18.0381 5.86324 18.55 6.27955 18.9595 6.83919L17.5263 8.27241C17.2396 7.91752 16.912 7.65135 16.5435 7.4739C16.175 7.29646 15.7518 7.20773 15.2741 7.20773C14.8236 7.20773 14.4756 7.27598 14.2299 7.41248C13.9842 7.54898 13.8613 7.7469 13.8613 8.00624C13.8613 8.27923 13.9842 8.4908 14.2299 8.64095C14.4756 8.7911 14.7895 8.92077 15.1717 9.02997C15.5675 9.13916 15.977 9.26201 16.4002 9.39851C16.837 9.52136 17.2465 9.6988 17.6286 9.93085C18.0245 10.1492 18.3453 10.4495 18.591 10.8317C18.8366 11.2003 18.9595 11.6848 18.9595 12.2854C18.9595 13.2409 18.6251 13.9985 17.9562 14.5581C17.2874 15.1177 16.3797 15.3976 15.2331 15.3976Z" fill="white"/>
<path d="M0.249023 15.1928V0.860596H2.6036V15.1928H0.249023ZM1.86651 15.1928V13.043H9.89254V15.1928H1.86651ZM1.86651 8.90709V6.83916H9.1964V8.90709H1.86651ZM1.86651 3.01042V0.860596H9.79016V3.01042H1.86651Z" fill="white"/>
</svg>
